<?xml version="1.0" standalone="no"?>
<!DOCTYPE svg PUBLIC "-//W3C//DTD SVG 20010904//EN"
 "http://www.w3.org/TR/2001/REC-SVG-20010904/DTD/svg10.dtd">
<svg version="1.0" xmlns="http://www.w3.org/2000/svg"
 width="213.000000pt" height="213.000000pt" viewBox="0 0 213.000000 213.000000"
 preserveAspectRatio="xMidYMid meet">
<metadata>
Created by potrace 1.14, written by Peter Selinger 2001-2017
</metadata>
<g transform="translate(0.000000,213.000000) scale(0.100000,-0.100000)"
fill="#000000" stroke="none">
<path d="M310 1930 l0 -200 200 0 200 0 0 200 0 200 -200 0 -200 0 0 -200z"/>
<path d="M910 1931 l0 -200 63 0 c235 1 432 -120 541 -331 56 -109 77 -201 77
-343 0 -272 -100 -476 -286 -582 -114 -65 -167 -76 -392 -82 l-203 -6 0 572 0
571 -200 0 -200 0 0 -570 0 -570 -100 0 -100 0 0 -196 0 -196 517 5 c285 2
527 6 538 9 11 3 40 9 64 13 69 11 208 61 279 101 174 95 316 247 402 429 18
39 33 75 35 80 1 6 9 35 19 66 35 118 41 165 41 344 0 171 -4 214 -30 316 -96
381 -361 630 -780 733 -64 15 -108 22 -217 31 l-68 6 0 -200z"/>
</g>
</svg>
